<?xml version="1.0" encoding="UTF-8"?>
<svg id="svg1059" xmlns="http://www.w3.org/2000/svg" viewBox="0 0 72 72">
  <defs>
    <style>
      .cls-1 {
        fill-rule: evenodd;
      }
    </style>
  </defs>
  <g id="g9012">
    <path id="path9003" class="cls-1" d="M40.32,43.93c0,.38-.15.75-.42,1.02s-.64.42-1.02.42h-12.97c-.38,0-.75-.15-1.02-.42-.27-.27-.42-.64-.42-1.02v-10.09c0-.38.15-.75.42-1.02.27-.27.64-.42,1.02-.42h12.97c.38,0,.75.15,1.02.42.27.27.42.64.42,1.02v10.09ZM41.77,37.44v2.88l3.78,3.14c.37.28.81.44,1.27.46h.72v-10.09h-.72c-.46.02-.9.18-1.27.46l-3.78,3.14ZM34.56,29.51c.38,0,.75.15,1.02.42.27.27.42.64.42,1.02h2.88c0-1.15-.46-2.25-1.27-3.06-.81-.81-1.91-1.27-3.06-1.27h-7.21c-.38,0-.75.15-1.02.42-.27.27-.42.64-.42,1.02s.15.75.42,1.02c.27.27.64.42,1.02.42h7.21Z"/>
  </g>
</svg>